<svg viewBox="0 0 16 16" fill="none" xmlns="http://www.w3.org/2000/svg">
	<circle cx="8" cy="8" r="8" fill="#1EA86C" />
	<path d="M9.9392 9.62207C9.9392 10.2092 9.80267 10.6256 9.5296 10.8714C9.26336 11.1171 8.81963 11.24 8.1984 11.24H6.1504V4.07199H8.07552C8.68309 4.07199 9.12683 4.19487 9.40672 4.44063C9.69344 4.68639 9.8368 5.09599 9.8368 5.66943V6.25311C9.8368 6.77876 9.64907 7.17471 9.2736 7.44095C9.71733 7.68671 9.9392 8.10655 9.9392 8.70047V9.62207ZM8.94592 5.57727C8.94592 5.31786 8.88448 5.13012 8.7616 5.01407C8.64555 4.89802 8.45781 4.83999 8.1984 4.83999H7.04128V7.10303H8.1984C8.41003 7.10303 8.58752 7.03476 8.73088 6.89823C8.87424 6.7617 8.94592 6.58079 8.94592 6.35551V5.57727ZM9.04832 8.60831C9.04832 8.38303 8.98005 8.20554 8.84352 8.07583C8.70699 7.9393 8.52608 7.87103 8.3008 7.87103H7.04128V10.472H8.29056C8.54997 10.472 8.74112 10.414 8.864 10.2979C8.98688 10.175 9.04832 9.98388 9.04832 9.72447V8.60831Z" fill="white" />
</svg>
